<?xml version="1.0" standalone="no"?>
<!DOCTYPE svg PUBLIC "-//W3C//DTD SVG 20010904//EN" "http://www.w3.org/TR/2001/REC-SVG-20010904/DTD/svg10.dtd">
<svg xmlns="http://www.w3.org/2000/svg" version="1.0" width="3300.000000pt" height="2550.000000pt" viewBox="0 0 3300.000000 2550.000000" preserveAspectRatio="xMidYMid meet">
<metadata>
Created by potrace 1.16, written by Peter Selinger 2001-2019
<meta name="Producer" content="Online-Convert"/></metadata>
<g transform="translate(0.000000,2550.000000) scale(0.100000,-0.100000)" fill="#000000" stroke="none">
<path d="M16540 17069 c0 -131 -7 -149 -54 -149 -14 0 -26 -4 -26 -10 0 -16 -109 -12 -126 4 -10 10 -14 39 -14 100 0 79 -2 86 -20 86 -17 0 -20 -7 -20 -44 0 -26 5 -47 13 -50 10 -5 10 -7 0 -12 -7 -3 -13 -16 -13 -29 0 -13 6 -26 13 -29 10 -5 10 -7 0 -12 -7 -3 -13 -17 -13 -30 0 -19 -5 -24 -25 -24 -14 0 -25 -4 -25 -10 0 -5 -24 -10 -54 -10 -34 0 -56 -5 -58 -12 -3 -8 -14 -3 -31 14 -24 24 -27 35 -27 93 0 51 -3 65 -15 65 -12 0 -15 -15 -15 -79 0 -54 -4 -81 -12 -85 -10 -5 -10 -7 0 -12 14 -7 16 -44 2 -44 -5 0 -10 -11 -10 -25 0 -14 5 -25 10 -25 6 0 10 -20 10 -45 0 -45 0 -45 35 -45 19 0 35 5 35 10 0 6 20 10 45 10 33 0 45 4 45 15 0 12 13 15 55 15 30 0 55 5 55 10 0 6 20 10 45 10 25 0 45 5 45 10 0 6 20 10 45 10 25 0 45 5 45 10 0 6 9 10 20 10 11 0 20 7 20 15 0 8 5 15 10 15 6 0 10 9 10 20 0 11 7 20 15 20 11 0 15 13 15 54 0 34 5 57 13 60 10 5 10 7 0 12 -16 7 -18 184 -3 184 6 0 10 11 10 25 0 20 -5 25 -25 25 l-25 0 0 -121z"/>
<path d="M16320 16420 c0 -5 -25 -10 -55 -10 -42 0 -55 -3 -55 -15 0 -12 -13 -15 -55 -15 -30 0 -55 -4 -55 -10 0 -5 -25 -10 -55 -10 -30 0 -55 -4 -55 -10 0 -5 -20 -10 -45 -10 -25 0 -45 -4 -45 -10 0 -5 -25 -10 -55 -10 -30 0 -55 -4 -55 -10 0 -5 -20 -10 -45 -10 -33 0 -45 -4 -45 -15 0 -11 -12 -15 -45 -15 l-45 0 0 -771 c0 -827 2 -799 -49 -799 -12 0 -21 -6 -21 -15 0 -12 -13 -15 -55 -15 -30 0 -55 -4 -55 -10 0 -5 -20 -10 -45 -10 -25 0 -45 -4 -45 -10 0 -5 -20 -10 -45 -10 -25 0 -45 -4 -45 -10 0 -5 -25 -10 -55 -10 -42 0 -55 -3 -55 -15 0 -12 -13 -15 -55 -15 -30 0 -55 -4 -55 -10 0 -5 -13 -10 -30 -10 -16 0 -30 -4 -30 -10 0 -6 -30 -10 -70 -10 -40 0 -70 -4 -70 -10 0 -5 -20 -10 -45 -10 l-45 0 0 -535 c0 -350 -3 -535 -10 -535 -5 0 -10 -20 -10 -45 0 -25 -4 -45 -10 -45 -5 0 -10 -9 -10 -20 0 -11 -4 -20 -10 -20 -5 0 -10 -7 -10 -15 0 -8 -7 -15 -15 -15 -8 0 -15 -7 -15 -16 0 -9 -13 -29 -30 -44 -16 -15 -30 -31 -30 -35 0 -9 -27 -35 -37 -35 -5 0 -15 -9 -23 -20 -8 -11 -22 -20 -32 -20 -10 0 -18 -7 -18 -15 0 -10 -11 -15 -35 -15 -19 0 -35 -4 -35 -10 0 -5 -20 -10 -45 -10 -25 0 -45 -4 -45 -10 0 -5 -25 -10 -55 -10 -30 0 -55 -4 -55 -10 0 -5 -25 -10 -55 -10 -30 0 -55 -4 -55 -10 0 -5 -20 -10 -45 -10 -33 0 -45 -4 -45 -15 0 -12 -13 -15 -55 -15 -30 0 -55 -4 -55 -10 0 -5 -20 -10 -45 -10 -25 0 -45 -4 -45 -10 0 -5 -25 -10 -55 -10 -30 0 -55 -4 -55 -10 0 -5 -25 -10 -55 -10 -42 0 -55 -3 -55 -15 0 -11 -12 -15 -45 -15 -25 0 -45 -4 -45 -10 0 -5 -25 -10 -55 -10 -30 0 -55 -4 -55 -10 0 -5 -25 -10 -55 -10 -30 0 -55 -4 -55 -10 0 -5 -20 -10 -45 -10 -25 0 -45 -4 -45 -10 0 -5 -25 -10 -55 -10 -42 0 -55 -3 -55 -15 0 -12 -13 -15 -60 -15 -33 0 -60 -4 -60 -10 0 -5 -18 -10 -40 -10 -22 0 -40 -4 -40 -10 0 -6 -27 -10 -60 -10 -33 0 -60 -4 -60 -10 0 -5 -18 -10 -40 -10 -29 0 -40 -4 -40 -15 0 -12 -13 -15 -60 -15 -33 0 -60 -4 -60 -10 0 -5 -25 -10 -55 -10 -30 0 -55 -4 -55 -10 0 -5 -13 -10 -30 -10 l-30 0 0 -765 0 -765 30 0 c17 0 30 5 30 10 0 6 20 10 45 10 25 0 45 5 45 10 0 6 25 10 55 10 30 0 55 5 55 10 0 6 25 10 55 10 30 0 55 5 55 10 0 6 27 10 60 10 47 0 60 3 60 15 0 11 11 15 40 15 22 0 40 5 40 10 0 6 27 10 60 10 33 0 60 4 60 10 0 6 25 10 55 10 30 0 55 5 55 10 0 6 20 10 45 10 33 0 45 4 45 15 0 11 12 15 45 15 25 0 45 5 45 10 0 6 28 10 65 10 37 0 65 4 65 10 0 6 20 10 45 10 25 0 45 5 45 10 0 6 20 10 45 10 33 0 45 4 45 15 0 12 13 15 55 15 30 0 55 5 55 10 0 6 25 10 55 10 30 0 55 5 55 10 0 6 16 10 35 10 19 0 35 5 35 10 0 6 14 10 30 10 17 0 30 5 30 10 0 6 11 10 25 10 16 0 25 6 25 15 0 8 9 15 20 15 11 0 20 5 20 10 0 6 11 10 25 10 14 0 25 5 25 10 0 6 9 10 20 10 11 0 20 5 20 10 0 6 9 10 20 10 11 0 20 7 20 15 0 9 9 15 23 15 12 0 29 9 37 20 8 11 23 20 33 20 19 0 67 42 67 60 0 5 9 10 20 10 11 0 20 5 20 10 0 6 5 10 10 10 12 0 60 45 60 55 0 8 27 35 35 35 14 0 55 50 55 67 0 10 9 25 20 33 11 8 20 22 20 32 0 10 7 18 15 18 8 0 15 7 15 15 0 8 5 15 10 15 6 0 10 9 10 20 0 11 5 20 10 20 6 0 10 9 10 20 0 11 5 20 10 20 6 0 10 11 10 25 0 16 6 25 15 25 8 0 15 9 15 20 0 11 5 20 10 20 6 0 10 16 10 35 0 19 5 35 10 35 6 0 10 16 10 35 0 19 5 35 10 35 6 0 10 14 10 30 0 17 5 30 10 30 6 0 10 30 10 70 0 56 3 70 15 70 13 0 15 21 15 130 0 80 4 130 10 130 6 0 10 45 10 115 l0 115 35 0 c19 0 35 5 35 10 0 6 25 10 55 10 30 0 55 5 55 10 0 6 25 10 55 10 30 0 55 5 55 10 0 6 20 10 45 10 25 0 45 5 45 10 0 6 20 10 45 10 33 0 45 4 45 15 0 11 11 15 40 15 22 0 40 5 40 10 0 6 27 10 60 10 33 0 60 4 60 10 0 6 25 10 55 10 30 0 55 5 55 10 0 6 20 10 45 10 33 0 45 4 45 15 0 12 13 15 55 15 30 0 55 5 55 10 0 6 20 10 45 10 25 0 45 5 45 10 0 6 25 10 55 10 30 0 55 5 55 10 0 6 20 10 45 10 25 0 45 5 45 10 0 6 25 10 55 10 42 0 55 3 55 15 0 12 13 15 55 15 30 0 55 5 55 10 0 6 25 10 55 10 30 0 55 5 55 10 0 6 20 10 45 10 25 0 45 5 45 10 0 6 20 10 45 10 33 0 45 4 45 15 0 11 12 15 45 15 25 0 45 5 45 10 0 6 25 10 55 10 30 0 55 5 55 10 0 6 25 10 55 10 30 0 55 5 55 10 0 6 16 10 35 10 19 0 35 5 35 10 0 6 28 10 65 10 51 0 65 3 65 15 0 11 12 15 45 15 25 0 45 5 45 10 0 6 25 10 55 10 30 0 55 5 55 10 0 6 16 10 35 10 l35 0 0 1025 c0 904 -2 1025 -15 1025 -11 0 -15 12 -15 45 0 25 -4 45 -10 45 -5 0 -10 18 -10 40 0 22 -4 40 -10 40 -5 0 -10 11 -10 25 0 14 -4 25 -10 25 -5 0 -10 9 -10 20 0 11 -7 20 -15 20 -9 0 -15 9 -15 25 0 14 -4 25 -10 25 -5 0 -10 8 -10 18 0 10 -9 24 -20 32 -11 8 -20 23 -20 33 0 18 -22 47 -35 47 -8 0 -35 27 -35 35 0 8 -47 55 -55 55 -8 0 -55 47 -55 55 0 13 -50 55 -65 55 -19 0 -45 23 -45 39 0 6 -11 11 -25 11 -14 0 -25 5 -25 10 0 6 -9 10 -20 10 -11 0 -20 5 -20 10 0 6 -9 10 -20 10 -11 0 -20 5 -20 10 0 6 -11 10 -25 10 -14 0 -25 5 -25 10 0 6 -20 10 -45 10 -33 0 -45 4 -45 15 0 12 -13 15 -55 15 -30 0 -55 5 -55 10 0 6 -55 10 -145 10 -90 0 -145 -4 -145 -10z m980 -1135 c0 -19 5 -35 10 -35 6 0 10 -32 10 -75 0 -43 -4 -75 -10 -75 -5 0 -10 -11 -10 -25 0 -24 -3 -25 -55 -25 -30 0 -55 -4 -55 -10 0 -5 -20 -10 -45 -10 -25 0 -45 -4 -45 -10 0 -6 -28 -10 -65 -10 -51 0 -65 -3 -65 -15 0 -11 -12 -15 -45 -15 -25 0 -45 -4 -45 -10 0 -5 -25 -10 -55 -10 -30 0 -55 -4 -55 -10 0 -5 -25 -10 -55 -10 -30 0 -55 -4 -55 -10 0 -5 -20 -10 -45 -10 -25 0 -45 -4 -45 -10 0 -5 -25 -10 -55 -10 -42 0 -55 -3 -55 -15 0 -12 -13 -15 -60 -15 -33 0 -60 -4 -60 -10 0 -5 -25 -10 -55 -10 -30 0 -55 -4 -55 -10 0 -5 -25 -10 -55 -10 -30 0 -55 -4 -55 -10 0 -5 -20 -10 -45 -10 -33 0 -45 -4 -45 -15 0 -12 -14 -15 -65 -15 -37 0 -65 -4 -65 -10 0 -5 -24 -10 -54 -10 -34 0 -57 -5 -60 -12 -5 -10 -7 -10 -12 0 -3 6 -12 12 -20 12 -11 0 -14 24 -14 125 l0 125 34 0 c19 0 37 6 40 13 5 10 7 10 12 0 7 -15 34 -17 34 -3 0 6 18 10 40 10 22 0 40 5 40 10 0 6 27 10 60 10 33 0 60 4 60 10 0 6 18 10 40 10 29 0 40 4 40 15 0 12 13 15 60 15 33 0 60 4 60 10 0 6 25 10 55 10 30 0 55 5 55 10 0 6 20 10 45 10 25 0 45 5 45 10 0 6 25 10 55 10 30 0 55 5 55 10 0 6 20 10 45 10 33 0 45 4 45 15 0 12 13 15 55 15 30 0 55 5 55 10 0 6 25 10 55 10 30 0 55 5 55 10 0 6 25 10 55 10 30 0 55 5 55 10 0 6 16 10 35 10 24 0 35 5 35 15 0 12 13 15 55 15 30 0 55 5 55 10 0 6 28 10 65 10 l65 0 0 -35z"/>
<path d="M14680 15510 c0 -5 -7 -10 -15 -10 -8 0 -15 -6 -15 -13 0 -7 -9 -19 -20 -27 -11 -8 -20 -22 -20 -32 0 -10 -4 -18 -10 -18 -5 0 -10 -5 -10 -11 0 -6 -6 -17 -14 -25 -8 -8 -19 -14 -25 -14 -6 0 -11 -8 -11 -18 0 -10 -9 -24 -20 -32 -11 -8 -20 -23 -20 -33 0 -20 -22 -47 -39 -47 -6 0 -11 -9 -11 -21 0 -12 -13 -34 -30 -49 -35 -32 -39 -60 -10 -60 11 0 20 -5 20 -11 0 -6 6 -17 14 -25 8 -8 19 -14 25 -14 6 0 11 -4 11 -10 0 -5 7 -10 16 -10 18 0 44 -23 44 -39 0 -6 7 -11 15 -11 8 0 15 -4 15 -10 0 -5 8 -10 18 -10 10 0 24 -9 32 -20 8 -11 23 -20 33 -20 20 0 47 -22 47 -39 0 -6 9 -11 20 -11 11 0 20 -4 20 -10 0 -5 11 -10 25 -10 14 0 25 -4 25 -10 0 -5 5 -10 10 -10 6 0 10 9 10 20 0 11 5 20 10 20 6 0 10 7 10 15 0 8 5 15 10 15 6 0 10 9 10 20 0 11 5 20 11 20 17 0 39 27 39 47 0 10 9 25 20 33 11 8 20 22 20 32 0 10 7 18 15 18 8 0 15 6 15 13 0 7 9 19 20 27 11 8 20 21 20 30 0 9 9 22 20 30 37 26 19 100 -24 100 -9 0 -16 5 -16 11 0 6 -6 17 -14 25 -8 8 -19 14 -25 14 -6 0 -11 5 -11 10 0 6 -8 10 -18 10 -10 0 -24 9 -32 20 -8 11 -25 20 -37 20 -13 0 -23 5 -23 10 0 17 -47 60 -65 60 -16 0 -45 23 -45 35 0 8 -26 35 -34 35 -3 0 -6 -4 -6 -10z"/>
<path d="M19460 14510 c0 -5 -7 -10 -15 -10 -8 0 -15 -7 -15 -15 0 -8 7 -15 15 -15 13 0 15 -50 15 -390 0 -340 -2 -390 -15 -390 -13 0 -15 -22 -15 -140 0 -87 -4 -140 -10 -140 -5 0 -10 -11 -10 -25 0 -14 -4 -25 -10 -25 -5 0 -10 -14 -10 -30 0 -30 -37 -80 -60 -80 -5 0 -10 -9 -10 -20 0 -13 -7 -20 -20 -20 -11 0 -20 -5 -20 -11 0 -12 -25 -39 -37 -39 -5 0 -15 -9 -23 -20 -8 -12 -26 -20 -42 -20 -18 0 -28 -5 -28 -15 0 -10 -11 -15 -35 -15 -19 0 -35 -4 -35 -10 0 -5 -20 -10 -45 -10 -25 0 -45 -4 -45 -10 0 -5 -20 -10 -45 -10 -25 0 -45 -4 -45 -10 0 -5 -25 -10 -55 -10 -30 0 -55 -4 -55 -10 0 -5 -20 -10 -45 -10 -33 0 -45 -4 -45 -15 0 -12 -13 -15 -55 -15 -30 0 -55 -4 -55 -10 0 -5 -25 -10 -55 -10 -30 0 -55 -4 -55 -10 0 -5 -25 -10 -55 -10 -30 0 -55 -4 -55 -10 0 -5 -25 -10 -55 -10 -42 0 -55 -3 -55 -15 0 -11 -12 -15 -45 -15 -25 0 -45 -4 -45 -10 0 -5 -20 -10 -45 -10 -25 0 -45 -4 -45 -10 0 -5 -25 -10 -55 -10 -30 0 -55 -4 -55 -10 0 -5 -25 -10 -55 -10 -30 0 -55 -4 -55 -10 0 -5 -20 -10 -45 -10 -33 0 -45 -4 -45 -15 0 -12 -13 -15 -55 -15 -30 0 -55 -4 -55 -10 0 -6 -27 -10 -60 -10 -33 0 -60 -4 -60 -10 0 -5 -18 -10 -40 -10 -22 0 -40 -4 -40 -10 0 -6 -27 -10 -60 -10 -47 0 -60 -3 -60 -15 0 -12 -13 -15 -55 -15 -30 0 -55 -4 -55 -10 0 -5 -23 -10 -51 -10 -30 0 -56 -6 -65 -14 -12 -12 -14 -129 -14 -775 0 -754 0 -761 20 -761 11 0 20 5 20 10 0 6 20 10 45 10 25 0 45 5 45 10 0 6 25 10 55 10 30 0 55 5 55 10 0 6 27 10 60 10 33 0 60 4 60 10 0 6 18 10 40 10 29 0 40 4 40 15 0 12 13 15 60 15 33 0 60 4 60 10 0 6 18 10 40 10 22 0 40 5 40 10 0 6 27 10 60 10 33 0 60 4 60 10 0 6 18 10 40 10 29 0 40 4 40 15 0 12 13 15 60 15 33 0 60 4 60 10 0 6 25 10 55 10 30 0 55 5 55 10 0 6 25 10 55 10 30 0 55 5 55 10 0 6 25 10 55 10 42 0 55 3 55 15 0 11 12 15 45 15 25 0 45 5 45 10 0 6 25 10 55 10 30 0 55 5 55 10 0 6 16 10 35 10 19 0 35 5 35 10 0 6 25 10 55 10 30 0 55 5 55 10 0 6 9 10 20 10 11 0 20 7 20 15 0 9 9 15 25 15 14 0 25 5 25 10 0 6 14 10 30 10 17 0 30 5 30 10 0 6 11 10 25 10 14 0 25 5 25 10 0 6 9 10 20 10 11 0 20 5 20 11 0 16 26 39 45 39 9 0 30 14 45 30 15 17 33 30 39 30 6 0 11 7 11 15 0 8 7 15 16 15 9 0 29 14 44 30 15 17 33 30 39 30 6 0 11 11 11 25 0 18 5 25 20 25 12 0 20 7 20 16 0 18 23 44 39 44 6 0 11 7 11 15 0 8 5 15 10 15 6 0 10 8 10 18 0 10 9 24 20 32 11 8 20 25 20 37 0 13 5 23 10 23 6 0 10 9 10 20 0 11 5 20 11 20 20 0 39 29 39 59 0 17 5 31 10 31 6 0 10 11 10 25 0 14 5 25 10 25 6 0 10 14 10 30 0 20 5 30 15 30 11 0 15 12 15 45 0 25 5 45 10 45 6 0 10 25 10 55 0 30 5 55 10 55 7 0 10 348 10 1025 0 615 -4 1025 -9 1025 -5 0 -12 -6 -15 -12 -5 -10 -7 -10 -12 0 -7 14 -94 17 -94 2z"/>
<path d="M16280 10100 l0 -300 30 0 30 0 0 100 0 100 100 0 c60 0 100 -4 100 -10 0 -5 5 -10 11 -10 16 0 39 -26 39 -44 0 -9 5 -16 10 -16 6 0 10 -5 10 -11 0 -14 25 -39 39 -39 6 0 11 -9 11 -20 0 -11 5 -20 10 -20 6 0 10 -7 10 -15 0 -10 10 -15 30 -15 20 0 30 5 30 15 0 8 -4 15 -10 15 -5 0 -10 8 -10 18 0 10 -9 24 -20 32 -11 8 -20 18 -20 23 0 12 -27 37 -39 37 -6 0 -11 9 -11 19 0 11 -6 22 -12 25 -10 5 -10 7 0 12 6 3 12 12 12 20 0 8 9 14 20 14 27 0 70 43 70 70 0 11 5 20 10 20 6 0 10 35 10 85 0 50 -4 85 -10 85 -5 0 -10 9 -10 20 0 27 -43 70 -70 70 -11 0 -20 5 -20 10 0 6 -65 10 -175 10 l-175 0 0 -300z m310 250 c0 -5 9 -10 20 -10 11 0 20 -4 20 -10 0 -5 7 -10 15 -10 9 0 15 -9 15 -25 0 -14 5 -25 10 -25 6 0 10 -32 10 -75 0 -43 -4 -75 -10 -75 -5 0 -10 -7 -10 -15 0 -8 -7 -15 -15 -15 -8 0 -15 -4 -15 -10 0 -5 -9 -10 -20 -10 -11 0 -20 -4 -20 -10 0 -5 -16 -10 -35 -10 -19 0 -35 -4 -35 -10 0 -6 -32 -10 -75 -10 -43 0 -75 4 -75 10 0 6 -7 10 -15 10 -13 0 -15 24 -15 155 l0 155 125 0 c77 0 125 -4 125 -10z"/>
<path d="M16880 10250 c0 -11 -4 -20 -10 -20 -5 0 -10 -7 -10 -15 0 -8 5 -15 10 -15 6 0 10 -73 10 -200 0 -193 1 -200 20 -200 19 0 20 7 20 176 0 139 3 178 14 190 8 8 17 14 21 14 10 0 35 28 35 39 0 7 28 11 75 11 60 0 75 -3 75 -15 0 -8 5 -15 10 -15 6 0 22 -11 35 -25 20 -19 25 -34 25 -75 0 -27 5 -50 10 -50 6 0 10 -16 10 -35 0 -19 -4 -35 -10 -35 -5 0 -10 -9 -10 -20 0 -11 5 -20 10 -20 6 0 10 -20 10 -45 0 -25 -4 -45 -10 -45 -5 0 -10 -11 -10 -25 0 -22 4 -25 35 -25 l35 0 0 188 c0 176 1 188 20 202 11 8 20 20 20 27 0 9 20 13 70 13 56 0 70 -3 70 -15 0 -8 7 -15 15 -15 31 0 65 -47 65 -90 0 -29 4 -40 15 -40 12 0 15 -19 15 -110 0 -91 -3 -110 -15 -110 -9 0 -15 -9 -15 -25 0 -22 4 -25 35 -25 l35 0 0 178 c0 166 -1 179 -20 192 -11 8 -20 25 -20 37 0 18 -6 23 -25 23 -14 0 -25 5 -25 10 0 6 -9 10 -20 10 -11 0 -20 5 -20 10 0 6 -30 10 -70 10 -40 0 -70 -4 -70 -10 0 -5 -7 -10 -16 -10 -18 0 -44 -23 -44 -39 0 -6 -11 -11 -25 -11 -14 0 -25 5 -25 11 0 16 -26 39 -44 39 -9 0 -16 5 -16 10 0 6 -30 10 -70 10 -40 0 -70 -4 -70 -10 0 -5 -13 -10 -30 -10 -16 0 -30 -4 -30 -10 0 -5 -11 -10 -25 -10 -18 0 -25 5 -25 20 0 13 -7 20 -20 20 -13 0 -20 -7 -20 -20z"/>
<path d="M17770 10260 c0 -5 -7 -10 -15 -10 -8 0 -15 -4 -15 -10 0 -6 60 -10 160 -10 l160 0 0 -25 c0 -14 -5 -25 -10 -25 -19 0 -60 -48 -60 -70 0 -15 -6 -20 -25 -20 -17 0 -25 -5 -25 -18 0 -10 -9 -24 -20 -32 -11 -8 -20 -18 -20 -23 0 -9 -46 -57 -55 -57 -10 0 -55 -48 -55 -59 0 -5 -6 -12 -12 -14 -10 -4 -9 -8 2 -16 8 -5 11 -14 6 -18 -5 -4 -11 -2 -13 5 -7 20 -33 14 -33 -8 0 -11 -4 -20 -10 -20 -5 0 -10 -7 -10 -15 0 -13 32 -15 225 -15 193 0 225 2 225 15 0 8 -7 15 -15 15 -8 0 -15 5 -15 10 0 6 -58 10 -155 10 -148 0 -155 1 -155 20 0 15 7 20 25 20 18 0 25 5 25 20 0 21 61 90 80 90 5 0 10 6 10 13 0 7 9 19 20 27 11 8 20 22 20 32 0 10 5 18 10 18 6 0 10 7 10 15 0 8 5 15 10 15 14 0 100 86 100 100 0 5 7 10 15 10 8 0 15 5 15 10 0 6 -7 10 -15 10 -8 0 -15 5 -15 10 0 6 -68 10 -185 10 -117 0 -185 -4 -185 -10z"/>
</g>
</svg>
